<svg xmlns="http://www.w3.org/2000/svg" width="1360" height="1180" viewBox="0 0 680 590" font-family="Arial, Helvetica, sans-serif">
<rect x="0" y="0" width="680" height="590" fill="#ffffff"/>
<defs><marker id="a" viewBox="0 0 10 10" refX="8" refY="5" markerWidth="6" markerHeight="6" orient="auto-start-reverse"><path d="M2 1L8 5L2 9" fill="none" stroke="#5F5E5A" stroke-width="1.5" stroke-linecap="round"/></marker></defs>

<rect x="40" y="40" width="180" height="56" rx="4" fill="#F1EFE8" stroke="#888780" stroke-width="1"/><text font-size="14" font-weight="bold" x="130.0" y="61" text-anchor="middle" fill="#2C2C2A">Chat del cliente</text><text font-size="11.5" x="130.0" y="80" text-anchor="middle" fill="#5F5E5A">app / WhatsApp · ES y PT</text><rect x="250" y="40" width="180" height="56" rx="4" fill="#F1EFE8" stroke="#888780" stroke-width="1"/><text font-size="14" font-weight="bold" x="340.0" y="61" text-anchor="middle" fill="#2C2C2A">Pantalla del agente</text><text font-size="11.5" x="340.0" y="80" text-anchor="middle" fill="#5F5E5A">casos que le llegan</text><rect x="460" y="40" width="180" height="56" rx="4" fill="#F1EFE8" stroke="#888780" stroke-width="1"/><text font-size="14" font-weight="bold" x="550.0" y="61" text-anchor="middle" fill="#2C2C2A">Tablero del banco</text><text font-size="11.5" x="550.0" y="80" text-anchor="middle" fill="#5F5E5A">métricas y casos en riesgo</text><line x1="130" y1="96" x2="130" y2="136" stroke="#5F5E5A" stroke-width="1.5" fill="none" marker-end="url(#a)"/><line x1="340" y1="96" x2="340" y2="136" stroke="#5F5E5A" stroke-width="1.5" fill="none" marker-end="url(#a)"/><line x1="550" y1="96" x2="550" y2="136" stroke="#5F5E5A" stroke-width="1.5" fill="none" marker-end="url(#a)"/><rect x="40" y="136" width="600" height="50" rx="4" fill="#F1EFE8" stroke="#888780" stroke-width="1"/><text font-size="14" font-weight="bold" x="340.0" y="157" text-anchor="middle" fill="#2C2C2A">API conversacional</text><text font-size="11.5" x="340.0" y="176" text-anchor="middle" fill="#5F5E5A">FastAPI en AWS App Runner · sesiones, turnos y trazas</text><line x1="230" y1="186" x2="230" y2="226" stroke="#5F5E5A" stroke-width="1.5" fill="none" marker-end="url(#a)"/><line x1="540" y1="186" x2="540" y2="226" stroke="#5F5E5A" stroke-width="1.5" fill="none" marker-end="url(#a)"/><rect x="40" y="226" width="380" height="50" rx="4" fill="#EEEDFE" stroke="#534AB7" stroke-width="1"/><text font-size="14" font-weight="bold" x="230.0" y="247" text-anchor="middle" fill="#26215C">Orquestador (máquina de estados)</text><text font-size="11.5" x="230.0" y="266" text-anchor="middle" fill="#534AB7">entender · verificar · decidir · actuar · seguir</text><rect x="440" y="226" width="200" height="50" rx="4" fill="#EEEDFE" stroke="#534AB7" stroke-width="1"/><text font-size="14" font-weight="bold" x="540.0" y="247" text-anchor="middle" fill="#26215C">Reglas (YAML)</text><text font-size="11.5" x="540.0" y="266" text-anchor="middle" fill="#534AB7">carril A/B/C, derivación</text><line x1="420" y1="251" x2="440" y2="251" stroke="#5F5E5A" stroke-width="1.5" fill="none" marker-end="url(#a)"/><line x1="130" y1="276" x2="130" y2="316" stroke="#5F5E5A" stroke-width="1.5" fill="none" marker-end="url(#a)"/><line x1="340" y1="276" x2="340" y2="316" stroke="#5F5E5A" stroke-width="1.5" fill="none" marker-end="url(#a)"/><line x1="550" y1="276" x2="550" y2="316" stroke="#5F5E5A" stroke-width="1.5" fill="none" marker-end="url(#a)"/><rect x="40" y="316" width="180" height="50" rx="4" fill="#FAECE7" stroke="#D85A30" stroke-width="1"/><text font-size="14" font-weight="bold" x="130.0" y="337" text-anchor="middle" fill="#4A1B0C">Clasificador local</text><text font-size="11.5" x="130.0" y="356" text-anchor="middle" fill="#993C1D">motivo, tipo, urgencia</text><rect x="250" y="316" width="180" height="50" rx="4" fill="#FAECE7" stroke="#D85A30" stroke-width="1"/><text font-size="14" font-weight="bold" x="340.0" y="337" text-anchor="middle" fill="#4A1B0C">LLM · Claude Opus 5 (Bedrock)</text><text font-size="11.5" x="340.0" y="356" text-anchor="middle" fill="#993C1D">entiende y redacta ES/PT</text><rect x="460" y="316" width="180" height="50" rx="4" fill="#F1EFE8" stroke="#888780" stroke-width="1"/><text font-size="14" font-weight="bold" x="550.0" y="337" text-anchor="middle" fill="#2C2C2A">Herramientas</text><text font-size="11.5" x="550.0" y="356" text-anchor="middle" fill="#5F5E5A">verifican propiedad</text><polyline points="550,366 550,386 130,386" stroke="#5F5E5A" stroke-width="1.5" fill="none"/><line x1="130" y1="386" x2="130" y2="406" stroke="#5F5E5A" stroke-width="1.5" fill="none" marker-end="url(#a)"/><line x1="340" y1="386" x2="340" y2="406" stroke="#5F5E5A" stroke-width="1.5" fill="none" marker-end="url(#a)"/><line x1="550" y1="386" x2="550" y2="406" stroke="#5F5E5A" stroke-width="1.5" fill="none" marker-end="url(#a)"/><rect x="40" y="406" width="180" height="50" rx="4" fill="#F1EFE8" stroke="#888780" stroke-width="1"/><text font-size="14" font-weight="bold" x="130.0" y="427" text-anchor="middle" fill="#2C2C2A">Datos gold</text><text font-size="11.5" x="130.0" y="446" text-anchor="middle" fill="#5F5E5A">Parquet en S3 · perfil, cargos</text><rect x="250" y="406" width="180" height="50" rx="4" fill="#F1EFE8" stroke="#888780" stroke-width="1"/><text font-size="14" font-weight="bold" x="340.0" y="427" text-anchor="middle" fill="#2C2C2A">Servicio de casos</text><text font-size="11.5" x="340.0" y="446" text-anchor="middle" fill="#5F5E5A">DynamoDB + reloj SLA</text><rect x="460" y="406" width="180" height="50" rx="4" fill="#F1EFE8" stroke="#888780" stroke-width="1"/><text font-size="14" font-weight="bold" x="550.0" y="427" text-anchor="middle" fill="#2C2C2A">Core simulado</text><text font-size="11.5" x="550.0" y="446" text-anchor="middle" fill="#5F5E5A">bloqueo · colas de agentes</text><rect x="40" y="486" width="600" height="44" rx="4" fill="#ffffff" stroke="#888780" stroke-width="1" stroke-dasharray="4 3"/><text font-size="14" font-weight="bold" x="340" y="505" text-anchor="middle" fill="#2C2C2A">Observabilidad</text><text font-size="11.5" x="340" y="522" text-anchor="middle" fill="#5F5E5A">trazas por conversación, auditoría, costo, latencia p50/p95</text><rect x="40" y="556" width="12" height="12" rx="2" fill="#EEEDFE" stroke="#534AB7"/><text font-size="11.5" x="58" y="566" fill="#2C2C2A">decide (código)</text><rect x="200" y="556" width="12" height="12" rx="2" fill="#FAECE7" stroke="#D85A30"/><text font-size="11.5" x="218" y="566" fill="#2C2C2A">entiende y redacta (modelos)</text><rect x="420" y="556" width="12" height="12" rx="2" fill="#F1EFE8" stroke="#888780"/><text font-size="11.5" x="438" y="566" fill="#2C2C2A">canales, herramientas y datos</text></svg>